<svg xmlns="http://www.w3.org/2000/svg" width="28.8" height="28.8" viewBox="0 0 28.8 28.8">
  <path id="Facebook"
    d="M215.383,188.8H201.589A1.589,1.589,0,0,1,200,187.211V161.589A1.589,1.589,0,0,1,201.589,160h25.621a1.589,1.589,0,0,1,1.589,1.589v25.621a1.589,1.589,0,0,1-1.589,1.589h-7.339V177.647h3.744l.56-4.346h-4.3v-2.775c0-1.259.35-2.116,2.154-2.116h2.3v-3.887a30.832,30.832,0,0,0-3.353-.171c-3.319,0-5.591,2.026-5.591,5.745V173.3H211.63v4.346h3.753V188.8Z"
    transform="translate(-200 -160)" fill="#eaf9e7" fill-rule="evenodd" />
</svg>