<svg id="icons" xmlns="http://www.w3.org/2000/svg" width="28.806" height="28.8" viewBox="0 0 28.806 28.8">
  <path id="instagram-_167_" data-name="instagram-[#167]" d="M292.455,7279.171a7.949,7.949,0,0,0-8.336,8.325c-.066,1.44-.452,12.387.665,15.253a7.25,7.25,0,0,0,4.193,4.177,10.089,10.089,0,0,0,3.478.662c12.761.577,17.492.273,19.487-4.839a10.4,10.4,0,0,0,.665-3.471c.583-12.79-.1-15.57-2.319-17.788-1.764-1.758-3.84-2.953-17.834-2.32m.117,25.854a8.441,8.441,0,0,1-2.662-.49,4.725,4.725,0,0,1-2.719-2.723c-.851-2.175-.569-12.531-.493-14.2a6.14,6.14,0,0,1,1.564-4.306c1.433-1.426,3.285-2.132,15.892-1.556a6.144,6.144,0,0,1,4.309,1.556c1.433,1.426,2.145,3.3,1.566,15.857a7.844,7.844,0,0,1-.493,2.65c-1.3,3.327-4.282,3.789-16.965,3.212m11.723-19.271a1.72,1.72,0,1,0,1.72-1.714,1.714,1.714,0,0,0-1.72,1.714M291,7293.387a7.359,7.359,0,1,0,7.358-7.346,7.346,7.346,0,0,0-7.358,7.346m2.582,0a4.777,4.777,0,1,1,4.776,4.767,4.769,4.769,0,0,1-4.776-4.767" transform="translate(-284 -7279)" fill="#eaf9e7" fill-rule="evenodd"/>
</svg>
